<?xml version="1.0" standalone="no"?>
<!DOCTYPE svg PUBLIC "-//W3C//DTD SVG 20010904//EN"
 "http://www.w3.org/TR/2001/REC-SVG-20010904/DTD/svg10.dtd">
<svg version="1.0" xmlns="http://www.w3.org/2000/svg"
 width="1248.000000pt" height="1036.000000pt" viewBox="0 0 1248.000000 1036.000000"
 preserveAspectRatio="xMidYMid meet">

<g transform="translate(0.000000,1036.000000) scale(0.100000,-0.100000)"
fill="#8560BF" stroke="none">
<path d="M8955 9643 c-317 -67 -650 -329 -877 -690 -121 -193 -179 -338 -237
-598 -18 -77 -36 -144 -41 -149 -15 -15 -41 3 -276 191 -382 307 -538 420
-739 538 -207 121 -394 196 -590 235 -140 28 -424 38 -559 20 -338 -46 -567
-182 -709 -420 -338 -568 -256 -1209 244 -1911 174 -245 562 -657 814 -864 66
-55 125 -104 131 -110 9 -8 107 -81 187 -138 16 -11 -8 -23 -205 -96 -123 -45
-259 -98 -303 -116 -44 -18 -114 -47 -155 -63 -152 -60 -569 -246 -714 -318
-394 -197 -723 -394 -1106 -662 -36 -25 -78 -56 -95 -69 -37 -29 -33 -26 -125
-93 -41 -30 -84 -63 -95 -72 -11 -9 -57 -46 -103 -82 -100 -79 -162 -130 -307
-256 -235 -203 -291 -256 -575 -540 -298 -298 -470 -485 -736 -804 -277 -333
-637 -824 -880 -1201 -112 -173 -214 -343 -214 -354 0 -32 31 0 79 82 74 126
375 579 506 762 398 554 806 1036 1265 1495 207 208 463 446 602 562 307 255
413 339 662 520 228 167 604 403 906 567 297 163 901 429 1335 589 61 22 154
57 208 76 l99 37 86 -54 c235 -146 412 -233 672 -330 259 -97 651 -202 814
-219 311 -32 567 77 626 267 17 51 16 156 0 226 -18 76 -74 184 -123 236 -88
94 -244 167 -411 193 -90 14 -380 14 -487 1 -317 -42 -699 -131 -1037 -244
l-131 -44 -58 41 c-224 156 -571 465 -774 688 -153 167 -345 408 -406 508
-199 328 -275 497 -327 730 -32 140 -38 202 -38 350 1 204 40 381 128 567 142
304 315 440 655 513 137 30 370 37 529 16 435 -56 728 -215 1420 -771 258
-207 269 -215 298 -215 27 0 49 29 61 80 42 182 55 235 77 310 93 307 326 637
594 840 94 71 280 170 362 193 326 92 588 -2 801 -288 88 -118 188 -333 242
-520 74 -254 96 -419 102 -770 5 -272 -3 -458 -34 -797 l-6 -67 -76 -45 c-220
-132 -332 -333 -381 -682 -14 -99 -3 -170 42 -259 51 -102 110 -145 178 -130
118 26 216 360 251 855 18 259 9 238 109 272 112 38 155 47 269 58 298 28 635
-76 844 -261 88 -77 165 -199 206 -327 22 -68 60 -142 73 -142 4 0 8 -5 8 -10
0 -6 -48 -33 -107 -61 -147 -68 -304 -149 -326 -167 -22 -19 -6 -42 16 -24 17
14 394 202 405 202 14 0 179 105 221 141 58 50 65 81 47 215 -16 121 -82 438
-97 466 -13 25 -36 22 -42 -4 -4 -13 -9 -106 -12 -208 -7 -219 -19 -348 -40
-426 -17 -64 -41 -108 -56 -99 -15 10 -44 73 -69 150 -56 174 -197 337 -375
435 -290 160 -616 201 -905 113 -47 -14 -97 -31 -112 -39 -20 -10 -27 -11 -30
-1 -3 6 1 80 8 162 28 331 37 633 25 824 -36 566 -203 1032 -463 1292 -173
174 -406 243 -643 192z m2729 -2583 c41 -202 56 -299 56 -361 0 -66 0 -67 -44
-107 -42 -39 -104 -77 -111 -70 -2 2 2 22 10 44 26 76 44 218 50 407 4 104 11
185 15 180 4 -4 15 -46 24 -93z m-1706 -57 c-4 -54 -15 -172 -23 -262 -39
-403 -120 -652 -220 -677 -80 -20 -175 139 -175 290 0 136 44 318 106 446 38
75 62 109 123 170 68 68 176 144 191 135 3 -2 2 -48 -2 -102z m-1952 -1008
c316 -55 488 -222 502 -486 6 -116 -14 -176 -79 -241 -90 -89 -221 -128 -436
-128 -145 0 -223 14 -480 86 -295 82 -584 189 -787 291 -88 45 -263 143 -312
177 l-37 25 35 14 c47 20 306 98 450 137 458 122 890 169 1144 125z"/>
</g>
</svg>
