<svg width="143" height="165" viewBox="0 0 143 165" fill="none" xmlns="http://www.w3.org/2000/svg">
<path d="M1.09001 29.2794C13.7182 27.9276 49.6969 23.6495 55.9256 42.3617C58.5174 50.1478 57.7408 62.2866 52.7516 69.1721C42.0373 83.9587 15.0586 75.8554 30.3179 57.2186C38.8756 46.7667 55.8032 48.5216 67.7745 49.9317C85.4209 52.0102 96.5432 62.656 107.377 75.9743C112.879 82.738 131.305 119.701 128.715 119.187" stroke="#80DCFF" stroke-linecap="round"/>
<path d="M137.242 131.888C134.594 131.265 114.466 125.832 116.839 126.82C119.945 128.114 123.279 129.124 126.21 130.8C129.678 132.782 133.578 133.852 136.808 136.205C139.642 138.271 138.769 119.736 137.887 116.604" stroke="#80DCFF" stroke-linecap="round"/>
</svg>
