<svg width="432" height="88" viewBox="0 0 432 88" fill="none" xmlns="http://www.w3.org/2000/svg">
<path d="M1 78.0814C25.5507 58.3868 44.9422 50.05 76.4385 51.4498C104.882 52.7139 135.821 66.222 162.275 76.0655C195.028 88.2525 259.319 97.7774 278.351 58.983C293.128 28.8603 270.979 -7.16051 236.122 2.64283C222.684 6.42221 215.74 24.3618 221.692 36.8077C228.121 50.2502 247.34 56.7306 260.632 59.8319C296.328 68.1608 320.109 34.7229 352.41 28.8501C382.588 23.3633 404.997 36.8813 427.849 55.1633C429.806 56.7293 428.804 46.3102 428.804 43.7043C428.804 34.1513 430.714 38.3912 430.714 45.6141C430.714 50.2595 433.161 60.1363 426.894 57.4977C422.373 55.594 412.869 55.1633 407.795 55.1633" stroke="#8560BF" stroke-linecap="round"/>
</svg>
