<svg width="16" height="17" viewBox="0 0 16 17" fill="none" xmlns="http://www.w3.org/2000/svg">
<path d="M8.00001 15.1666C11.6819 15.1666 14.6667 12.1818 14.6667 8.49992C14.6667 4.81802 11.6819 1.83325 8.00001 1.83325C4.31811 1.83325 1.33334 4.81802 1.33334 8.49992C1.33334 12.1818 4.31811 15.1666 8.00001 15.1666Z" stroke="#EFE6FF" stroke-width="2" stroke-linecap="round" stroke-linejoin="round"/>
<path d="M10 6.73592C9.64172 6.32972 9.16823 6.04226 8.64254 5.91178C8.11685 5.7813 7.5639 5.814 7.05725 6.00552C6.5506 6.19704 6.11429 6.5383 5.80636 6.98389C5.49843 7.42948 5.3335 7.95828 5.3335 8.49992C5.3335 9.04156 5.49843 9.57035 5.80636 10.0159C6.11429 10.4615 6.5506 10.8028 7.05725 10.9943C7.5639 11.1858 8.11685 11.2185 8.64254 11.0881C9.16823 10.9576 9.64172 10.6701 10 10.2639" stroke="#EFE6FF" stroke-width="2" stroke-linecap="round" stroke-linejoin="round"/>
</svg>
