<svg width="20" height="20" viewBox="0 0 20 20" fill="none" xmlns="http://www.w3.org/2000/svg">
<path fill-rule="evenodd" clip-rule="evenodd" d="M13.0001 1.66666C12.6465 1.66666 12.3073 1.80713 12.0573 2.05718C11.8072 2.30723 11.6667 2.64637 11.6667 2.99999V6.66666H8.00008C7.64646 6.66666 7.30732 6.80713 7.05727 7.05718C6.80722 7.30723 6.66675 7.64637 6.66675 7.99999V12.5H3.00008C2.64646 12.5 2.30732 12.6405 2.05727 12.8905C1.80722 13.1406 1.66675 13.4797 1.66675 13.8333V17C1.66675 17.3536 1.80722 17.6927 2.05727 17.9428C2.30732 18.1928 2.64646 18.3333 3.00008 18.3333H17.0001C17.3537 18.3333 17.6928 18.1928 17.9429 17.9428C18.1929 17.6927 18.3334 17.3536 18.3334 17V2.99999C18.3334 2.64637 18.1929 2.30723 17.9429 2.05718C17.6928 1.80713 17.3537 1.66666 17.0001 1.66666H13.0001ZM8.33341 8.33332H11.6667V16.6667H8.33341V8.33332ZM16.6667 16.6667H13.3334V3.33332H16.6667V16.6667ZM6.66675 14.1667V16.6667H3.33341V14.1667H6.66675Z" fill="#C0C0C0"/>
</svg>
