<svg width="44" height="44" viewBox="0 0 44 44" fill="none" xmlns="http://www.w3.org/2000/svg">
<path d="M31.8055 20.0415H31V20H22V24H27.6515C26.827 26.3285 24.6115 28 22 28C18.6865 28 16 25.3135 16 22C16 18.6865 18.6865 16 22 16C23.5295 16 24.921 16.577 25.9805 17.5195L28.809 14.691C27.023 13.0265 24.634 12 22 12C16.4775 12 12 16.4775 12 22C12 27.5225 16.4775 32 22 32C27.5225 32 32 27.5225 32 22C32 21.3295 31.931 20.675 31.8055 20.0415Z" fill="#FFC107"/>
<path d="M13.153 17.3455L16.4385 19.755C17.3275 17.554 19.4805 16 22 16C23.5295 16 24.921 16.577 25.9805 17.5195L28.809 14.691C27.023 13.0265 24.634 12 22 12C18.159 12 14.828 14.1685 13.153 17.3455Z" fill="#FF3D00"/>
<path d="M22 32C24.583 32 26.93 31.0115 28.7045 29.404L25.6095 26.785C24.5717 27.5742 23.3037 28.001 22 28C19.399 28 17.1905 26.3415 16.3585 24.027L13.0975 26.5395C14.7525 29.778 18.1135 32 22 32Z" fill="#4CAF50"/>
<path d="M31.8055 20.0415H31V20H22V24H27.6515C27.2571 25.1082 26.5467 26.0766 25.608 26.7855L25.6095 26.7845L28.7045 29.4035C28.4855 29.6025 32 27 32 22C32 21.3295 31.931 20.675 31.8055 20.0415Z" fill="#1976D2"/>
<rect x="1" y="1" width="42" height="42" rx="21" stroke="#8560BF" stroke-width="2"/>
</svg>
