<svg width="24" height="24" viewBox="0 0 24 24" fill="none" xmlns="http://www.w3.org/2000/svg">
<g opacity="0.65">
<path d="M12 19.126C15.8623 19.126 19.0615 15.9336 19.0615 12.0645C19.0615 8.20215 15.8623 5.00293 11.9932 5.00293C8.13086 5.00293 4.93848 8.20215 4.93848 12.0645C4.93848 15.9336 8.1377 19.126 12 19.126ZM12 14.4229C10.0518 14.4229 8.54785 15.1133 7.83008 15.9131C6.90039 14.9082 6.33301 13.5547 6.33301 12.0645C6.33301 8.91992 8.84863 6.39746 11.9932 6.39746C15.1377 6.39746 17.667 8.91992 17.6738 12.0645C17.6738 13.5547 17.1064 14.9082 16.1768 15.9199C15.4521 15.1133 13.9482 14.4229 12 14.4229ZM12 13.3018C13.3262 13.3086 14.3516 12.1807 14.3516 10.7109C14.3516 9.33008 13.3193 8.18164 12 8.18164C10.6875 8.18164 9.6416 9.33008 9.64844 10.7109C9.65527 12.1807 10.6807 13.2881 12 13.3018Z" fill="white"/>
</g>
</svg>
