<svg width="45" height="38" viewBox="0 0 45 38" fill="none" xmlns="http://www.w3.org/2000/svg">
<path d="M41.75 0.1875H3.25C2.43777 0.1875 1.65882 0.510155 1.08449 1.08449C0.510155 1.65882 0.1875 2.43777 0.1875 3.25V34.75C0.1875 35.5622 0.510155 36.3412 1.08449 36.9155C1.65882 37.4898 2.43777 37.8125 3.25 37.8125H41.75C42.5622 37.8125 43.3412 37.4898 43.9155 36.9155C44.4898 36.3412 44.8125 35.5622 44.8125 34.75V3.25C44.8125 2.43777 44.4898 1.65882 43.9155 1.08449C43.3412 0.510155 42.5622 0.1875 41.75 0.1875ZM3.25 2.8125H41.75C41.866 2.8125 41.9773 2.85859 42.0594 2.94064C42.1414 3.02269 42.1875 3.13397 42.1875 3.25V28.0781L35.1656 21.0562C34.5885 20.4872 33.8105 20.1681 33 20.1681C32.1895 20.1681 31.4115 20.4872 30.8344 21.0562L26.3062 25.5844C26.2673 25.6268 26.22 25.6607 26.1673 25.6839C26.1146 25.707 26.0576 25.719 26 25.719C25.9424 25.719 25.8854 25.707 25.8327 25.6839C25.78 25.6607 25.7327 25.6268 25.6938 25.5844L15.9156 15.8063C15.3385 15.2372 14.5605 14.9181 13.75 14.9181C12.9395 14.9181 12.1615 15.2372 11.5844 15.8063L2.8125 24.5781V3.25C2.8125 3.13397 2.85859 3.02269 2.94064 2.94064C3.02269 2.85859 3.13397 2.8125 3.25 2.8125ZM41.75 35.1875H3.25C3.13397 35.1875 3.02269 35.1414 2.94064 35.0594C2.85859 34.9773 2.8125 34.866 2.8125 34.75V28.2969L13.4437 17.6656C13.4827 17.6232 13.53 17.5893 13.5827 17.5661C13.6355 17.543 13.6924 17.531 13.75 17.531C13.8076 17.531 13.8645 17.543 13.9173 17.5661C13.97 17.5893 14.0173 17.6232 14.0563 17.6656L23.8344 27.4438C24.4115 28.0128 25.1895 28.3319 26 28.3319C26.8105 28.3319 27.5885 28.0128 28.1656 27.4438L32.6938 22.9156C32.7327 22.8732 32.78 22.8393 32.8327 22.8161C32.8854 22.793 32.9424 22.781 33 22.781C33.0576 22.781 33.1146 22.793 33.1673 22.8161C33.22 22.8393 33.2673 22.8732 33.3062 22.9156L42.1875 31.7969V34.75C42.1875 34.866 42.1414 34.9773 42.0594 35.0594C41.9773 35.1414 41.866 35.1875 41.75 35.1875ZM27.0719 14.4281C26.8681 14.2244 26.7071 13.9822 26.5982 13.7155C26.4893 13.4488 26.4346 13.1631 26.4375 12.875C26.4375 12.2948 26.668 11.7384 27.0782 11.3282C27.4884 10.918 28.0448 10.6875 28.625 10.6875C29.2052 10.6875 29.7616 10.918 30.1718 11.3282C30.582 11.7384 30.8125 12.2948 30.8125 12.875C30.8125 13.4552 30.582 14.0116 30.1718 14.4218C29.7616 14.832 29.2052 15.0625 28.625 15.0625C28.3369 15.0654 28.0512 15.0107 27.7845 14.9018C27.5178 14.7929 27.2755 14.6318 27.0719 14.4281Z" fill="#7E8492"/>
</svg>
